<svg xmlns="http://www.w3.org/2000/svg" width="96" height="20" viewBox="0 0 96 20" shape-rendering="crispEdges">
  <rect x="0" y="15" width="96" height="2" fill="#d9edf8" fill-opacity="0.7"/>
  <rect x="2" y="12" width="10" height="4" fill="#ffffff" fill-opacity="0.92"/>
  <rect x="6" y="10" width="10" height="6" fill="#ffffff" fill-opacity="0.96"/>
  <rect x="12" y="12" width="8" height="4" fill="#ffffff" fill-opacity="0.92"/>

  <rect x="22" y="11" width="12" height="5" fill="#ffffff" fill-opacity="0.9"/>
  <rect x="28" y="9" width="12" height="7" fill="#ffffff" fill-opacity="0.96"/>
  <rect x="36" y="11" width="10" height="5" fill="#ffffff" fill-opacity="0.9"/>

  <rect x="50" y="12" width="10" height="4" fill="#ffffff" fill-opacity="0.92"/>
  <rect x="54" y="9" width="14" height="7" fill="#ffffff" fill-opacity="0.97"/>
  <rect x="64" y="12" width="8" height="4" fill="#ffffff" fill-opacity="0.9"/>

  <rect x="74" y="11" width="10" height="5" fill="#ffffff" fill-opacity="0.9"/>
  <rect x="80" y="10" width="10" height="6" fill="#ffffff" fill-opacity="0.95"/>
  <rect x="86" y="12" width="8" height="4" fill="#ffffff" fill-opacity="0.88"/>

  <rect x="4" y="16" width="14" height="2" fill="#b7daf1" fill-opacity="0.7"/>
  <rect x="28" y="16" width="16" height="2" fill="#b7daf1" fill-opacity="0.7"/>
  <rect x="56" y="16" width="14" height="2" fill="#b7daf1" fill-opacity="0.7"/>
  <rect x="80" y="16" width="12" height="2" fill="#b7daf1" fill-opacity="0.7"/>

  <rect x="10" y="18" width="8" height="1" fill="#8eb6d0" fill-opacity="0.55"/>
  <rect x="34" y="18" width="8" height="1" fill="#8eb6d0" fill-opacity="0.55"/>
  <rect x="60" y="18" width="8" height="1" fill="#8eb6d0" fill-opacity="0.55"/>
  <rect x="84" y="18" width="6" height="1" fill="#8eb6d0" fill-opacity="0.55"/>
</svg>
