<svg xmlns="http://www.w3.org/2000/svg" width="96" height="20" viewBox="0 0 96 20" shape-rendering="crispEdges">
  <rect x="0" y="14" width="96" height="6" fill="#543621"/>
  <rect x="0" y="12" width="16" height="2" fill="#8f5d36"/>
  <rect x="16" y="12" width="16" height="2" fill="#a96f3f"/>
  <rect x="32" y="12" width="16" height="2" fill="#8f5d36"/>
  <rect x="48" y="12" width="16" height="2" fill="#a96f3f"/>
  <rect x="64" y="12" width="16" height="2" fill="#8f5d36"/>
  <rect x="80" y="12" width="16" height="2" fill="#a96f3f"/>
  <rect x="6" y="10" width="6" height="2" fill="#c18854"/>
  <rect x="24" y="10" width="4" height="2" fill="#c18854"/>
  <rect x="42" y="10" width="6" height="2" fill="#c18854"/>
  <rect x="60" y="10" width="4" height="2" fill="#c18854"/>
  <rect x="78" y="10" width="6" height="2" fill="#c18854"/>
  <rect x="14" y="14" width="2" height="2" fill="#d6c3a1"/>
  <rect x="34" y="16" width="2" height="2" fill="#d6c3a1"/>
  <rect x="50" y="14" width="2" height="2" fill="#d6c3a1"/>
  <rect x="72" y="16" width="2" height="2" fill="#d6c3a1"/>
  <rect x="88" y="14" width="2" height="2" fill="#d6c3a1"/>
  <rect x="8" y="18" width="4" height="2" fill="#3b2518"/>
  <rect x="40" y="18" width="4" height="2" fill="#3b2518"/>
  <rect x="72" y="18" width="4" height="2" fill="#3b2518"/>
</svg>
