<svg xmlns="http://www.w3.org/2000/svg" width="96" height="20" viewBox="0 0 96 20" shape-rendering="crispEdges">
  <rect x="0" y="16" width="96" height="4" fill="#2e4f22"/>
  <rect x="0" y="14" width="12" height="2" fill="#5f8f39"/>
  <rect x="12" y="14" width="12" height="2" fill="#78b94d"/>
  <rect x="24" y="14" width="12" height="2" fill="#5f8f39"/>
  <rect x="36" y="14" width="12" height="2" fill="#78b94d"/>
  <rect x="48" y="14" width="12" height="2" fill="#5f8f39"/>
  <rect x="60" y="14" width="12" height="2" fill="#78b94d"/>
  <rect x="72" y="14" width="12" height="2" fill="#5f8f39"/>
  <rect x="84" y="14" width="12" height="2" fill="#78b94d"/>
  <rect x="4" y="12" width="4" height="2" fill="#7ac853"/>
  <rect x="18" y="12" width="2" height="2" fill="#8ddb5d"/>
  <rect x="30" y="12" width="4" height="2" fill="#7ac853"/>
  <rect x="44" y="12" width="2" height="2" fill="#8ddb5d"/>
  <rect x="56" y="12" width="4" height="2" fill="#7ac853"/>
  <rect x="70" y="12" width="2" height="2" fill="#8ddb5d"/>
  <rect x="82" y="12" width="4" height="2" fill="#7ac853"/>
  <rect x="6" y="10" width="2" height="2" fill="#9af06c"/>
  <rect x="20" y="10" width="2" height="2" fill="#9af06c"/>
  <rect x="32" y="10" width="2" height="2" fill="#9af06c"/>
  <rect x="46" y="10" width="2" height="2" fill="#9af06c"/>
  <rect x="58" y="10" width="2" height="2" fill="#9af06c"/>
  <rect x="72" y="10" width="2" height="2" fill="#9af06c"/>
  <rect x="84" y="10" width="2" height="2" fill="#9af06c"/>
  <rect x="10" y="16" width="2" height="2" fill="#775333"/>
  <rect x="38" y="16" width="2" height="2" fill="#775333"/>
  <rect x="66" y="16" width="2" height="2" fill="#775333"/>
</svg>
